<svg xmlns="http://www.w3.org/2000/svg" viewBox="0 0 99 199">
  <path fill="#FFFFFF" fill-rule="evenodd" d="M63 164v-9c-2-13 20-19 28-26 0 10-16 32-28 35zm-27-13v13c-13-3-29-25-28-35 2 1 28 15 28 22Zm5-7c4 5 4 15 4 23h9v-10l1-9c6-14 38-31 40-31 5 0 4 7 4 8 0 21-17 46-46 49v24l-4 1c-2 0-2-1-3-2v-23c-30-3-46-28-46-49 0-3-2-8 4-8 5 0 34 22 37 27zm47-46-25 18v-11c-2-13 20-19 28-26 0 4 2 14-3 19zm-52 2v16c-2-2-28-15-28-23V79c6 4 28 15 28 21Zm63-31v25c-3 3-3 10-9 14-10 7-30 21-32 21-3 0-3-2-4-3v-24c2-4 3-10 8-14 10-8 30-21 33-21l4 2zM40 91c2 2 5 6 5 9v26c-1 1-1 3-4 3-2 0-24-14-35-23-4-3-6-11-6-13V70c1-1 1-3 4-3 2 0 24 14 36 24zm48-43L63 66V55c-2-13 20-19 28-26 0 4 2 14-3 19zm-52 2v16C34 64 8 51 8 43V29c7 4 28 15 28 21Zm63-31v25c-2 5-4 10-8 13-11 8-31 22-34 22-2 0-2-2-3-3V52c1-2 1-6 3-8 2-5 33-27 38-27l4 2zM40 42c2 2 5 7 5 10v24c-1 1-2 3-4 3-3 0-24-15-34-23-4-3-7-9-7-11V19c1-1 1-2 4-2s33 20 36 25zm30-28c0 2 1 10-4 10s-4-8-4-10c0-3-1-10 4-10s4 7 4 10zm-33 0c0 5-1 10-5 10s-3-10-3-10c0-3-1-10 3-10 5 0 5 7 5 10zM53 2v34l-4 1c-2 0-2-1-3-2V2c1-1 1-2 3-2 3 0 3 1 4 2"/>
</svg>
