<svg xmlns="http://www.w3.org/2000/svg" viewBox="0 0 199 162">
  <path fill-rule="evenodd" d="M55 153h-4l-16-30 7-4 13 34Zm42 0h-3l4-40h10zm75-143c6 5 18 17 18 20 0 9-17 5-19 8-12 17-18 38-29 55-8 12-11 4-11 15l4 45h-5c-5-16-6-34-13-49H51c-11 6-27 7-34 18-6 8-3 21-5 31H8v-42l25-16V69c-1-1-2-3-5-3-2 0-7 5-11 8V52c1-7 12-21 21-21h80c7-5 33-23 45-23 2 0 6 0 9 2zm4-7c4 2 23 21 23 26s-6 15-14 16l-10 1-24 48c-4 7-12 15-12 15l5 46c-1 9-10 7-11 7l-8-1-11-36-11 36-8 1c-8 0-10 1-10-7l4-43H52l-3 3 17 43-2 3-9 1-8-1-20-36-9 36-8 1c-2 0-9 0-10-2v-53c13-13 25-10 25-22l-1-6c-4 3-9 7-12 7l-4-2V53c0-12 16-30 29-30h79c17-9 31-23 47-23 2 0 9 1 13 3"/>
</svg>
